<svg width="345" height="144" viewBox="0 0 345 144" fill="none" xmlns="http://www.w3.org/2000/svg">
<path d="M196.88 49.84C196.453 52.32 195.333 54.2533 193.52 55.64C191.733 57 189.32 57.68 186.28 57.68H180.32L178.12 70H176.32L181.32 41.92H189.08C191.773 41.92 193.773 42.4667 195.08 43.56C196.387 44.6267 197.04 46.12 197.04 48.04C197.04 48.68 196.987 49.28 196.88 49.84ZM186.56 56.12C191.52 56.12 194.347 54.0267 195.04 49.84C195.147 49.3067 195.2 48.7333 195.2 48.12C195.2 45.0267 193.067 43.48 188.8 43.48H182.84L180.6 56.12H186.56ZM214.676 48C216.516 48 218.076 48.36 219.356 49.08C220.663 49.7733 221.636 50.72 222.276 51.92C222.943 53.0933 223.276 54.4133 223.276 55.88C223.276 56.52 223.223 57.1067 223.116 57.64C222.956 58.6 222.796 59.32 222.636 59.8H203.876C203.769 60.6533 203.716 61.2667 203.716 61.64C203.716 63.9333 204.409 65.6933 205.796 66.92C207.183 68.1467 208.929 68.76 211.036 68.76C213.143 68.76 215.009 68.24 216.636 67.2C218.289 66.1333 219.463 64.6933 220.156 62.88H222.036C221.183 65.0933 219.756 66.8933 217.756 68.28C215.783 69.64 213.449 70.32 210.756 70.32C208.089 70.32 205.943 69.5467 204.316 68C202.716 66.4533 201.916 64.3467 201.916 61.68C201.916 60.8533 201.996 60 202.156 59.12C202.556 56.8533 203.356 54.88 204.556 53.2C205.756 51.52 207.223 50.24 208.956 49.36C210.716 48.4533 212.623 48 214.676 48ZM221.196 58.4C221.383 57.6267 221.476 56.84 221.476 56.04C221.476 53.9333 220.796 52.32 219.436 51.2C218.103 50.08 216.409 49.52 214.356 49.52C212.836 49.52 211.369 49.8533 209.956 50.52C208.543 51.1867 207.316 52.1867 206.276 53.52C205.236 54.8533 204.516 56.48 204.116 58.4H221.196ZM234.396 52.96C235.249 51.3067 236.423 50.04 237.916 49.16C239.436 48.28 241.236 47.84 243.316 47.84L242.956 49.72H242.396C240.263 49.72 238.383 50.3333 236.756 51.56C235.129 52.76 234.076 54.7333 233.596 57.48L231.356 70H229.556L233.436 48.28H235.236L234.396 52.96ZM259.94 41.64C257.86 41.64 256.34 42.04 255.38 42.84C254.447 43.64 253.82 44.9467 253.5 46.76L253.22 48.28H258.86L258.58 49.88H252.94L249.38 70H247.58L251.1 49.88H247.86L248.14 48.28H251.38L251.66 46.76C252.06 44.4667 252.927 42.7733 254.26 41.68C255.62 40.5867 257.607 40.04 260.22 40.04L259.94 41.64ZM276.151 48C277.991 48 279.551 48.36 280.831 49.08C282.138 49.7733 283.111 50.72 283.751 51.92C284.418 53.0933 284.751 54.4133 284.751 55.88C284.751 56.52 284.698 57.1067 284.591 57.64C284.431 58.6 284.271 59.32 284.111 59.8H265.351C265.244 60.6533 265.191 61.2667 265.191 61.64C265.191 63.9333 265.884 65.6933 267.271 66.92C268.658 68.1467 270.404 68.76 272.511 68.76C274.618 68.76 276.484 68.24 278.111 67.2C279.764 66.1333 280.938 64.6933 281.631 62.88H283.511C282.658 65.0933 281.231 66.8933 279.231 68.28C277.258 69.64 274.924 70.32 272.231 70.32C269.564 70.32 267.418 69.5467 265.791 68C264.191 66.4533 263.391 64.3467 263.391 61.68C263.391 60.8533 263.471 60 263.631 59.12C264.031 56.8533 264.831 54.88 266.031 53.2C267.231 51.52 268.698 50.24 270.431 49.36C272.191 48.4533 274.098 48 276.151 48ZM282.671 58.4C282.858 57.6267 282.951 56.84 282.951 56.04C282.951 53.9333 282.271 52.32 280.911 51.2C279.578 50.08 277.884 49.52 275.831 49.52C274.311 49.52 272.844 49.8533 271.431 50.52C270.018 51.1867 268.791 52.1867 267.751 53.52C266.711 54.8533 265.991 56.48 265.591 58.4H282.671ZM296.631 43.44C296.258 43.44 295.951 43.3333 295.711 43.12C295.471 42.88 295.351 42.5733 295.351 42.2C295.351 41.6667 295.538 41.2267 295.911 40.88C296.284 40.5067 296.711 40.32 297.191 40.32C297.564 40.32 297.871 40.44 298.111 40.68C298.378 40.92 298.511 41.2267 298.511 41.6C298.511 42.1333 298.311 42.5733 297.911 42.92C297.538 43.2667 297.111 43.44 296.631 43.44ZM296.711 48.28L292.831 70H291.031L294.911 48.28H296.711ZM306.349 64.2C306.243 64.7333 306.189 65.2667 306.189 65.8C306.189 66.76 306.456 67.44 306.989 67.84C307.523 68.2133 308.403 68.4 309.629 68.4H312.029L311.749 70H309.029C307.429 70 306.243 69.6933 305.469 69.08C304.723 68.4667 304.349 67.4533 304.349 66.04C304.349 65.4267 304.403 64.8133 304.509 64.2L307.069 49.84H303.789L304.069 48.28H307.349L308.309 42.76H310.149L309.189 48.28H315.589L315.309 49.84H308.909L306.349 64.2ZM329.297 70.32C326.577 70.32 324.39 69.5333 322.737 67.96C321.11 66.3867 320.297 64.2533 320.297 61.56C320.297 59.1067 320.843 56.84 321.937 54.76C323.057 52.68 324.603 51.04 326.577 49.84C328.55 48.6133 330.75 48 333.177 48C334.937 48 336.497 48.36 337.857 49.08C339.217 49.7733 340.27 50.7867 341.017 52.12C341.79 53.4267 342.177 54.9733 342.177 56.76C342.177 59.2133 341.617 61.48 340.497 63.56C339.377 65.64 337.83 67.2933 335.857 68.52C333.91 69.72 331.723 70.32 329.297 70.32ZM329.537 68.76C331.617 68.76 333.47 68.2133 335.097 67.12C336.75 66.0267 338.03 64.5733 338.937 62.76C339.87 60.9467 340.337 58.9733 340.337 56.84C340.337 54.4667 339.63 52.6533 338.217 51.4C336.803 50.1467 335.03 49.52 332.897 49.52C330.79 49.52 328.923 50.0667 327.297 51.16C325.67 52.2533 324.403 53.72 323.497 55.56C322.59 57.3733 322.137 59.3333 322.137 61.44C322.137 63.8133 322.83 65.6267 324.217 66.88C325.63 68.1333 327.403 68.76 329.537 68.76Z" fill="#242424"/>
<path d="M195.68 90C196.16 87.2267 197.173 84.76 198.72 82.6C200.293 80.4133 202.227 78.72 204.52 77.52C206.813 76.2933 209.253 75.68 211.84 75.68C214.853 75.68 217.32 76.44 219.24 77.96C221.187 79.4533 222.44 81.5333 223 84.2H220.92C220.467 82.0933 219.413 80.4133 217.76 79.16C216.133 77.9067 214.067 77.28 211.56 77.28C209.347 77.28 207.253 77.8 205.28 78.84C203.307 79.88 201.627 81.36 200.24 83.28C198.88 85.2 197.973 87.44 197.52 90C197.36 90.96 197.28 91.8933 197.28 92.8C197.28 94.8267 197.693 96.5867 198.52 98.08C199.347 99.5467 200.493 100.68 201.96 101.48C203.453 102.28 205.16 102.68 207.08 102.68C209.213 102.68 211.227 102.2 213.12 101.24C215.04 100.28 216.667 98.92 218 97.16C219.36 95.3733 220.307 93.28 220.84 90.88H208.32L208.6 89.4H222.96L222.72 90.6C222.187 93.2133 221.147 95.56 219.6 97.64C218.08 99.6933 216.2 101.32 213.96 102.52C211.72 103.693 209.333 104.28 206.8 104.28C204.533 104.28 202.533 103.813 200.8 102.88C199.093 101.947 197.76 100.627 196.8 98.92C195.867 97.1867 195.4 95.2 195.4 92.96C195.4 91.9467 195.493 90.96 195.68 90ZM242.324 82C244.164 82 245.724 82.36 247.004 83.08C248.311 83.7733 249.284 84.72 249.924 85.92C250.591 87.0933 250.924 88.4133 250.924 89.88C250.924 90.52 250.871 91.1067 250.764 91.64C250.604 92.6 250.444 93.32 250.284 93.8H231.524C231.418 94.6533 231.364 95.2667 231.364 95.64C231.364 97.9333 232.058 99.6933 233.444 100.92C234.831 102.147 236.578 102.76 238.684 102.76C240.791 102.76 242.658 102.24 244.284 101.2C245.938 100.133 247.111 98.6933 247.804 96.88H249.684C248.831 99.0933 247.404 100.893 245.404 102.28C243.431 103.64 241.098 104.32 238.404 104.32C235.738 104.32 233.591 103.547 231.964 102C230.364 100.453 229.564 98.3467 229.564 95.68C229.564 94.8533 229.644 94 229.804 93.12C230.204 90.8533 231.004 88.88 232.204 87.2C233.404 85.52 234.871 84.24 236.604 83.36C238.364 82.4533 240.271 82 242.324 82ZM248.844 92.4C249.031 91.6267 249.124 90.84 249.124 90.04C249.124 87.9333 248.444 86.32 247.084 85.2C245.751 84.08 244.058 83.52 242.004 83.52C240.484 83.52 239.018 83.8533 237.604 84.52C236.191 85.1867 234.964 86.1867 233.924 87.52C232.884 88.8533 232.164 90.48 231.764 92.4H248.844ZM264.044 104.32C261.804 104.32 260.018 103.787 258.684 102.72C257.378 101.653 256.804 100.133 256.964 98.16H258.764C258.631 99.5733 259.031 100.707 259.964 101.56C260.924 102.387 262.324 102.8 264.164 102.8C266.058 102.8 267.564 102.387 268.684 101.56C269.804 100.707 270.364 99.6133 270.364 98.28C270.364 97.48 270.138 96.8133 269.684 96.28C269.231 95.7467 268.671 95.32 268.004 95C267.338 94.68 266.404 94.3067 265.204 93.88C263.871 93.4267 262.778 92.9867 261.924 92.56C261.098 92.1333 260.391 91.5467 259.804 90.8C259.244 90.0267 258.964 89.0533 258.964 87.88C258.964 86.7333 259.298 85.72 259.964 84.84C260.631 83.9333 261.551 83.24 262.724 82.76C263.898 82.2533 265.204 82 266.644 82C268.644 82 270.311 82.52 271.644 83.56C272.978 84.5733 273.644 85.92 273.644 87.6C273.644 87.9467 273.631 88.2133 273.604 88.4H271.844C271.871 88.2667 271.884 88.0533 271.884 87.76C271.884 86.48 271.364 85.4533 270.324 84.68C269.311 83.88 268.031 83.48 266.484 83.48C264.831 83.48 263.458 83.88 262.364 84.68C261.298 85.4533 260.764 86.5067 260.764 87.84C260.764 88.72 261.004 89.4533 261.484 90.04C261.964 90.6 262.551 91.0533 263.244 91.4C263.964 91.72 264.924 92.0933 266.124 92.52C267.458 92.9733 268.511 93.4 269.284 93.8C270.084 94.2 270.764 94.76 271.324 95.48C271.884 96.2 272.164 97.12 272.164 98.24C272.164 100.107 271.404 101.587 269.884 102.68C268.391 103.773 266.444 104.32 264.044 104.32ZM287.127 104.32C284.887 104.32 283.101 103.787 281.767 102.72C280.461 101.653 279.887 100.133 280.047 98.16H281.847C281.714 99.5733 282.114 100.707 283.047 101.56C284.007 102.387 285.407 102.8 287.247 102.8C289.141 102.8 290.647 102.387 291.767 101.56C292.887 100.707 293.447 99.6133 293.447 98.28C293.447 97.48 293.221 96.8133 292.767 96.28C292.314 95.7467 291.754 95.32 291.087 95C290.421 94.68 289.487 94.3067 288.287 93.88C286.954 93.4267 285.861 92.9867 285.007 92.56C284.181 92.1333 283.474 91.5467 282.887 90.8C282.327 90.0267 282.047 89.0533 282.047 87.88C282.047 86.7333 282.381 85.72 283.047 84.84C283.714 83.9333 284.634 83.24 285.807 82.76C286.981 82.2533 288.287 82 289.727 82C291.727 82 293.394 82.52 294.727 83.56C296.061 84.5733 296.727 85.92 296.727 87.6C296.727 87.9467 296.714 88.2133 296.687 88.4H294.927C294.954 88.2667 294.967 88.0533 294.967 87.76C294.967 86.48 294.447 85.4533 293.407 84.68C292.394 83.88 291.114 83.48 289.567 83.48C287.914 83.48 286.541 83.88 285.447 84.68C284.381 85.4533 283.847 86.5067 283.847 87.84C283.847 88.72 284.087 89.4533 284.567 90.04C285.047 90.6 285.634 91.0533 286.327 91.4C287.047 91.72 288.007 92.0933 289.207 92.52C290.541 92.9733 291.594 93.4 292.367 93.8C293.167 94.2 293.847 94.76 294.407 95.48C294.967 96.2 295.247 97.12 295.247 98.24C295.247 100.107 294.487 101.587 292.967 102.68C291.474 103.773 289.527 104.32 287.127 104.32ZM312.97 104.32C310.25 104.32 308.063 103.533 306.41 101.96C304.783 100.387 303.97 98.2533 303.97 95.56C303.97 93.1067 304.517 90.84 305.61 88.76C306.73 86.68 308.277 85.04 310.25 83.84C312.223 82.6133 314.423 82 316.85 82C318.61 82 320.17 82.36 321.53 83.08C322.89 83.7733 323.943 84.7867 324.69 86.12C325.463 87.4267 325.85 88.9733 325.85 90.76C325.85 93.2133 325.29 95.48 324.17 97.56C323.05 99.64 321.503 101.293 319.53 102.52C317.583 103.72 315.397 104.32 312.97 104.32ZM313.21 102.76C315.29 102.76 317.143 102.213 318.77 101.12C320.423 100.027 321.703 98.5733 322.61 96.76C323.543 94.9467 324.01 92.9733 324.01 90.84C324.01 88.4667 323.303 86.6533 321.89 85.4C320.477 84.1467 318.703 83.52 316.57 83.52C314.463 83.52 312.597 84.0667 310.97 85.16C309.343 86.2533 308.077 87.72 307.17 89.56C306.263 91.3733 305.81 93.3333 305.81 95.44C305.81 97.8133 306.503 99.6267 307.89 100.88C309.303 102.133 311.077 102.76 313.21 102.76Z" fill="#242424"/>
<path d="M66.672 57.616C66.672 63.568 64.816 68.208 61.104 71.536C57.392 74.8 51.888 76.432 44.592 76.432H30.192V106H25.872V38.608H44.592C52.016 38.608 57.552 40.336 61.2 43.792C64.848 47.184 66.672 51.792 66.672 57.616ZM44.592 72.592C56.432 72.592 62.352 67.6 62.352 57.616C62.352 52.688 60.944 48.944 58.128 46.384C55.312 43.76 50.8 42.448 44.592 42.448H30.192V72.592H44.592ZM133.67 58.48C131.75 53.424 128.55 49.392 124.07 46.384C119.654 43.376 114.406 41.872 108.326 41.872C103.014 41.872 98.2143 43.12 93.9263 45.616C89.6383 48.112 86.2463 51.664 83.7503 56.272C81.2543 60.88 80.0063 66.256 80.0063 72.4C80.0063 78.544 81.2543 83.92 83.7503 88.528C86.2463 93.136 89.6383 96.688 93.9263 99.184C98.2143 101.616 103.014 102.832 108.326 102.832C113.446 102.832 118.086 101.68 122.246 99.376C126.406 97.072 129.734 93.808 132.23 89.584C134.726 85.296 136.102 80.304 136.358 74.608H106.31V70.96H140.774V73.84C140.582 80.112 139.078 85.744 136.262 90.736C133.446 95.728 129.606 99.632 124.742 102.448C119.878 105.264 114.406 106.672 108.326 106.672C102.118 106.672 96.5183 105.232 91.5263 102.352C86.5343 99.408 82.6303 95.344 79.8143 90.16C76.9983 84.912 75.5903 78.992 75.5903 72.4C75.5903 65.744 76.9983 59.824 79.8143 54.64C82.6303 49.392 86.5343 45.328 91.5263 42.448C96.5183 39.504 102.118 38.032 108.326 38.032C115.558 38.032 121.798 39.856 127.046 43.504C132.358 47.088 136.23 52.08 138.662 58.48H133.67Z" fill="#242424"/>
<path d="M1 106.5V25L12.5 11.5H137.5L150.5 25V106.5L137.5 120H12.5L1 106.5Z" stroke="#242424"/>
<path d="M12 113V31.5L23.5 18H148.5L161.5 31.5V113L148.5 126.5H23.5L12 113Z" stroke="#242424" stroke-width="2"/>
</svg>
